<svg class="main-svg" xmlns="http://www.w3.org/2000/svg" xmlns:xlink="http://www.w3.org/1999/xlink" width="700" height="450" style="" viewBox="0 0 700 450"><rect x="0" y="0" width="700" height="450" style="fill: rgb(255, 255, 255); fill-opacity: 1;"/><defs id="defs-eefcfd"><g class="clips"><clipPath id="clipeefcfdxyplot" class="plotclip"><rect width="580" height="330"/></clipPath><clipPath class="axesclip" id="clipeefcfdx"><rect x="60" y="0" width="580" height="450"/></clipPath><clipPath class="axesclip" id="clipeefcfdy"><rect x="0" y="60" width="700" height="330"/></clipPath><clipPath class="axesclip" id="clipeefcfdxy"><rect x="60" y="60" width="580" height="330"/></clipPath></g><g class="gradients"/></defs><g class="bglayer"><rect class="bg" x="60" y="60" width="580" height="330" style="fill: rgb(255, 255, 255); fill-opacity: 1; stroke-width: 0;"/></g><g class="layer-below"><g class="imagelayer"/><g class="shapelayer"/></g><g class="cartesianlayer"><g class="subplot xy"><g class="layer-subplot"><g class="shapelayer"/><g class="imagelayer"/></g><g class="gridlayer"><g class="x"><path class="xgrid crisp" d="M0,60v330" transform="translate(177.17000000000002,0)" style="stroke: rgb(238, 238, 238); stroke-opacity: 1; stroke-width: 1px;"/><path class="xgrid crisp" d="M0,60v330" transform="translate(294.34000000000003,0)" style="stroke: rgb(238, 238, 238); stroke-opacity: 1; stroke-width: 1px;"/><path class="xgrid crisp" d="M0,60v330" transform="translate(411.52,0)" style="stroke: rgb(238, 238, 238); stroke-opacity: 1; stroke-width: 1px;"/><path class="xgrid crisp" d="M0,60v330" transform="translate(528.69,0)" style="stroke: rgb(238, 238, 238); stroke-opacity: 1; stroke-width: 1px;"/></g><g class="y"><path class="ygrid crisp" d="M60,0h580" transform="translate(0,353.51)" style="stroke: rgb(238, 238, 238); stroke-opacity: 1; stroke-width: 1px;"/><path class="ygrid crisp" d="M60,0h580" transform="translate(0,315.09000000000003)" style="stroke: rgb(238, 238, 238); stroke-opacity: 1; stroke-width: 1px;"/><path class="ygrid crisp" d="M60,0h580" transform="translate(0,276.66999999999996)" style="stroke: rgb(238, 238, 238); stroke-opacity: 1; stroke-width: 1px;"/><path class="ygrid crisp" d="M60,0h580" transform="translate(0,238.25)" style="stroke: rgb(238, 238, 238); stroke-opacity: 1; stroke-width: 1px;"/><path class="ygrid crisp" d="M60,0h580" transform="translate(0,199.83)" style="stroke: rgb(238, 238, 238); stroke-opacity: 1; stroke-width: 1px;"/><path class="ygrid crisp" d="M60,0h580" transform="translate(0,161.4)" style="stroke: rgb(238, 238, 238); stroke-opacity: 1; stroke-width: 1px;"/><path class="ygrid crisp" d="M60,0h580" transform="translate(0,122.97999999999999)" style="stroke: rgb(238, 238, 238); stroke-opacity: 1; stroke-width: 1px;"/><path class="ygrid crisp" d="M60,0h580" transform="translate(0,84.56)" style="stroke: rgb(238, 238, 238); stroke-opacity: 1; stroke-width: 1px;"/></g></g><g class="zerolinelayer"><path class="xzl zl crisp" d="M0,60v330" transform="translate(60,0)" style="stroke: rgb(68, 68, 68); stroke-opacity: 1; stroke-width: 1px;"/></g><path class="xlines-below"/><path class="ylines-below"/><g class="overlines-below"/><g class="xaxislayer-below"/><g class="yaxislayer-below"/><g class="overaxes-below"/><g class="plot" transform="translate(60, 60)" clip-path="url(#clipeefcfdxyplot)"><g class="scatterlayer mlayer"><g class="trace scatter trace637237" style="stroke-miterlimit: 2; opacity: 1;"><path class="js-line" d="M0,16.5L5.86,115.33L11.72,165.64L17.58,196.57L23.43,214.51L29.29,228.36L35.15,237.8L46.87,251.73L52.73,257L64.44,266.48L70.3,269.47L93.74,280.87L99.6,281.9L105.45,283.36L111.31,286.07L128.89,290.05L134.75,290.82L140.61,293.64L146.46,294.37L158.18,295.77L164.04,298.03L169.9,297.71L175.76,298.55L181.62,298.43L187.47,299.86L193.33,300.18L199.19,301.4L210.91,301.11L216.77,302.25L222.63,302.67L228.48,303.86L251.92,304.34L257.78,305.46L263.64,305.56L269.49,306.91L281.21,304.7L287.07,308.29L292.93,307L298.79,307.79L310.51,307.1L316.36,307.61L333.94,309.14L339.8,308.55L351.52,309.53L357.37,308.22L374.95,309.91L380.81,308.86L386.67,310.05L392.53,309.84L433.54,310.97L439.39,310.65L451.11,310.96L456.97,311.06L486.26,311.79L492.12,311.98L503.84,310.58L509.7,311.91L521.41,311.76L527.27,312.63L538.99,311.48L544.85,312.35L562.42,311.74L568.28,313.5L580,312.21" style="vector-effect: non-scaling-stroke; fill: none; stroke: rgb(31, 119, 180); stroke-opacity: 1; stroke-width: 2px; opacity: 1;"/><g class="points"/></g><g class="trace scatter trace7f304d" style="stroke-miterlimit: 2; opacity: 1;"><path class="js-line" d="M0,36.42L5.86,106.61L11.72,166.23L17.58,203.95L23.43,207.25L29.29,225.3L35.15,227.6L41.01,219.84L46.87,232.74L52.73,234.27L58.59,244.67L64.44,168.2L70.3,233.24L76.16,250.38L82.02,238.05L87.88,238.59L93.74,234.95L99.6,256.99L105.45,247.82L111.31,255.91L117.17,245.27L123.03,256.79L128.89,244.02L134.75,260.95L140.61,239.6L146.46,233.94L152.32,241.11L158.18,260.39L164.04,251.28L169.9,248.37L175.76,249.07L181.62,246.98L187.47,267.21L193.33,252.47L199.19,252.32L205.05,246.52L210.91,229.76L216.77,262.89L222.63,266.8L228.48,251.32L234.34,241.06L240.2,260.54L246.06,262.06L251.92,254.97L257.78,252.53L263.64,264.11L269.49,259.64L275.35,250.66L281.21,266.64L287.07,260.08L292.93,258.72L298.79,239.91L304.65,254.04L310.51,250.16L316.36,264.7L322.22,245.86L328.08,258.67L333.94,246.82L339.8,246.57L345.66,256.31L351.52,267.99L357.37,270.01L363.23,255.23L369.09,248.92L374.95,261.93L380.81,254.94L386.67,267.62L392.53,247.18L398.38,258.87L404.24,261.26L410.1,261.89L415.96,254.5L421.82,257.86L427.68,251.74L433.54,259.1L439.39,235.55L445.25,242.05L451.11,230.2L456.97,258.64L462.83,240.16L468.69,265.33L474.55,263.41L480.4,252.18L486.26,259.71L492.12,241.61L497.98,259.97L503.84,231.34L509.7,243.74L515.56,260.02L521.41,266.18L527.27,256.33L533.13,259.99L538.99,258.03L544.85,263.13L550.71,261.31L556.57,258.21L562.42,261.36L568.28,249.75L574.14,261.3L580,260.9" style="vector-effect: non-scaling-stroke; fill: none; stroke: rgb(255, 127, 14); stroke-opacity: 1; stroke-width: 2px; opacity: 1;"/><g class="points"/></g></g></g><g class="overplot"/><path class="xlines-above crisp" d="M0,0" style="fill: none;"/><path class="ylines-above crisp" d="M0,0" style="fill: none;"/><g class="overlines-above"/><g class="xaxislayer-above"><g class="xtick"><text text-anchor="middle" x="0" y="403" transform="translate(60,0)" style="font-family: 'Open Sans', verdana, arial, sans-serif; font-size: 12px; fill: rgb(68, 68, 68); fill-opacity: 1; white-space: pre;">0</text></g><g class="xtick"><text text-anchor="middle" x="0" y="403" transform="translate(177.17000000000002,0)" style="font-family: 'Open Sans', verdana, arial, sans-serif; font-size: 12px; fill: rgb(68, 68, 68); fill-opacity: 1; white-space: pre;">20</text></g><g class="xtick"><text text-anchor="middle" x="0" y="403" transform="translate(294.34000000000003,0)" style="font-family: 'Open Sans', verdana, arial, sans-serif; font-size: 12px; fill: rgb(68, 68, 68); fill-opacity: 1; white-space: pre;">40</text></g><g class="xtick"><text text-anchor="middle" x="0" y="403" transform="translate(411.52,0)" style="font-family: 'Open Sans', verdana, arial, sans-serif; font-size: 12px; fill: rgb(68, 68, 68); fill-opacity: 1; white-space: pre;">60</text></g><g class="xtick"><text text-anchor="middle" x="0" y="403" transform="translate(528.69,0)" style="font-family: 'Open Sans', verdana, arial, sans-serif; font-size: 12px; fill: rgb(68, 68, 68); fill-opacity: 1; white-space: pre;">80</text></g></g><g class="yaxislayer-above"><g class="ytick"><text text-anchor="end" x="59" y="4.199999999999999" transform="translate(0,353.51)" style="font-family: 'Open Sans', verdana, arial, sans-serif; font-size: 12px; fill: rgb(68, 68, 68); fill-opacity: 1; white-space: pre;">0.2</text></g><g class="ytick"><text text-anchor="end" x="59" y="4.199999999999999" transform="translate(0,315.09000000000003)" style="font-family: 'Open Sans', verdana, arial, sans-serif; font-size: 12px; fill: rgb(68, 68, 68); fill-opacity: 1; white-space: pre;">0.4</text></g><g class="ytick"><text text-anchor="end" x="59" y="4.199999999999999" transform="translate(0,276.66999999999996)" style="font-family: 'Open Sans', verdana, arial, sans-serif; font-size: 12px; fill: rgb(68, 68, 68); fill-opacity: 1; white-space: pre;">0.6</text></g><g class="ytick"><text text-anchor="end" x="59" y="4.199999999999999" transform="translate(0,238.25)" style="font-family: 'Open Sans', verdana, arial, sans-serif; font-size: 12px; fill: rgb(68, 68, 68); fill-opacity: 1; white-space: pre;">0.8</text></g><g class="ytick"><text text-anchor="end" x="59" y="4.199999999999999" transform="translate(0,199.83)" style="font-family: 'Open Sans', verdana, arial, sans-serif; font-size: 12px; fill: rgb(68, 68, 68); fill-opacity: 1; white-space: pre;">1</text></g><g class="ytick"><text text-anchor="end" x="59" y="4.199999999999999" transform="translate(0,161.4)" style="font-family: 'Open Sans', verdana, arial, sans-serif; font-size: 12px; fill: rgb(68, 68, 68); fill-opacity: 1; white-space: pre;">1.2</text></g><g class="ytick"><text text-anchor="end" x="59" y="4.199999999999999" transform="translate(0,122.97999999999999)" style="font-family: 'Open Sans', verdana, arial, sans-serif; font-size: 12px; fill: rgb(68, 68, 68); fill-opacity: 1; white-space: pre;">1.4</text></g><g class="ytick"><text text-anchor="end" x="59" y="4.199999999999999" transform="translate(0,84.56)" style="font-family: 'Open Sans', verdana, arial, sans-serif; font-size: 12px; fill: rgb(68, 68, 68); fill-opacity: 1; white-space: pre;">1.6</text></g></g><g class="overaxes-above"/></g></g><g class="polarlayer"/><g class="ternarylayer"/><g class="geolayer"/><g class="pielayer"/><g class="glimages"/><defs id="topdefs-eefcfd"><g class="clips"/></defs><g class="layer-above"><g class="imagelayer"/><g class="shapelayer"/></g><g class="infolayer"><g class="g-gtitle"><text class="gtitle" x="350" y="30" text-anchor="middle" style="font-family: 'Open Sans', verdana, arial, sans-serif; font-size: 17px; fill: rgb(68, 68, 68); opacity: 1; font-weight: normal; white-space: pre;">train_val_loss</text></g><g class="g-xtitle"/><g class="g-ytitle"/></g></svg>