<svg class="main-svg" xmlns="http://www.w3.org/2000/svg" xmlns:xlink="http://www.w3.org/1999/xlink" width="700" height="450" style="" viewBox="0 0 700 450"><rect x="0" y="0" width="700" height="450" style="fill: rgb(255, 255, 255); fill-opacity: 1;"/><defs id="defs-0e48e2"><g class="clips"><clipPath id="clip0e48e2xyplot" class="plotclip"><rect width="580" height="330"/></clipPath><clipPath class="axesclip" id="clip0e48e2x"><rect x="60" y="0" width="580" height="450"/></clipPath><clipPath class="axesclip" id="clip0e48e2y"><rect x="0" y="60" width="700" height="330"/></clipPath><clipPath class="axesclip" id="clip0e48e2xy"><rect x="60" y="60" width="580" height="330"/></clipPath></g><g class="gradients"/></defs><g class="bglayer"><rect class="bg" x="60" y="60" width="580" height="330" style="fill: rgb(255, 255, 255); fill-opacity: 1; stroke-width: 0;"/></g><g class="layer-below"><g class="imagelayer"/><g class="shapelayer"/></g><g class="cartesianlayer"><g class="subplot xy"><g class="layer-subplot"><g class="shapelayer"/><g class="imagelayer"/></g><g class="gridlayer"><g class="x"><path class="xgrid crisp" d="M0,60v330" transform="translate(177.17000000000002,0)" style="stroke: rgb(238, 238, 238); stroke-opacity: 1; stroke-width: 1px;"/><path class="xgrid crisp" d="M0,60v330" transform="translate(294.34000000000003,0)" style="stroke: rgb(238, 238, 238); stroke-opacity: 1; stroke-width: 1px;"/><path class="xgrid crisp" d="M0,60v330" transform="translate(411.52,0)" style="stroke: rgb(238, 238, 238); stroke-opacity: 1; stroke-width: 1px;"/><path class="xgrid crisp" d="M0,60v330" transform="translate(528.69,0)" style="stroke: rgb(238, 238, 238); stroke-opacity: 1; stroke-width: 1px;"/></g><g class="y"><path class="ygrid crisp" d="M60,0h580" transform="translate(0,364.97)" style="stroke: rgb(238, 238, 238); stroke-opacity: 1; stroke-width: 1px;"/><path class="ygrid crisp" d="M60,0h580" transform="translate(0,328.53)" style="stroke: rgb(238, 238, 238); stroke-opacity: 1; stroke-width: 1px;"/><path class="ygrid crisp" d="M60,0h580" transform="translate(0,292.08000000000004)" style="stroke: rgb(238, 238, 238); stroke-opacity: 1; stroke-width: 1px;"/><path class="ygrid crisp" d="M60,0h580" transform="translate(0,255.64)" style="stroke: rgb(238, 238, 238); stroke-opacity: 1; stroke-width: 1px;"/><path class="ygrid crisp" d="M60,0h580" transform="translate(0,219.19)" style="stroke: rgb(238, 238, 238); stroke-opacity: 1; stroke-width: 1px;"/><path class="ygrid crisp" d="M60,0h580" transform="translate(0,182.75)" style="stroke: rgb(238, 238, 238); stroke-opacity: 1; stroke-width: 1px;"/><path class="ygrid crisp" d="M60,0h580" transform="translate(0,146.3)" style="stroke: rgb(238, 238, 238); stroke-opacity: 1; stroke-width: 1px;"/><path class="ygrid crisp" d="M60,0h580" transform="translate(0,109.86)" style="stroke: rgb(238, 238, 238); stroke-opacity: 1; stroke-width: 1px;"/><path class="ygrid crisp" d="M60,0h580" transform="translate(0,73.41)" style="stroke: rgb(238, 238, 238); stroke-opacity: 1; stroke-width: 1px;"/></g></g><g class="zerolinelayer"><path class="xzl zl crisp" d="M0,60v330" transform="translate(60,0)" style="stroke: rgb(68, 68, 68); stroke-opacity: 1; stroke-width: 1px;"/></g><path class="xlines-below"/><path class="ylines-below"/><g class="overlines-below"/><g class="xaxislayer-below"/><g class="yaxislayer-below"/><g class="overaxes-below"/><g class="plot" transform="translate(60, 60)" clip-path="url(#clip0e48e2xyplot)"><g class="scatterlayer mlayer"><g class="trace scatter trace9c7704" style="stroke-miterlimit: 2; opacity: 1;"><path class="js-line" d="M0,16.5L5.86,62.53L11.72,85.4L17.58,103.75L23.43,114.52L29.29,130L35.15,134.18L41.01,142.57L46.87,143.25L58.59,152.1L64.44,154.95L70.3,158.13L76.16,158.04L82.02,165.81L87.88,160.5L93.74,167.96L99.6,169.9L105.45,172.04L111.31,170.95L117.17,181.98L123.03,169.4L128.89,175.14L134.75,177.92L140.61,180.46L146.46,177.56L152.32,178.02L158.18,176.63L164.04,178.47L169.9,186.39L175.76,184.34L181.62,191.32L187.47,185.33L193.33,188.25L199.19,182.45L205.05,180.99L210.91,182.33L216.77,185.49L222.63,187.33L228.48,190.39L234.34,191.26L240.2,190.45L246.06,188.14L251.92,194.25L257.78,190.01L263.64,183.44L269.49,190.46L275.35,190.55L281.21,191.36L287.07,190.01L292.93,195.3L298.79,197.05L304.65,192.32L310.51,192.36L316.36,192.81L322.22,198.34L328.08,190.82L333.94,191.98L339.8,187.87L345.66,195.89L351.52,197.34L357.37,206.74L363.23,197.81L369.09,195.23L374.95,197.79L380.81,193.63L386.67,198.54L392.53,198.54L398.38,196.66L404.24,195.67L410.1,197.55L415.96,201.54L421.82,195.78L427.68,192.74L433.54,195.02L439.39,200.95L445.25,204.49L451.11,199.59L462.83,198.06L468.69,193.67L480.4,197.14L486.26,200.37L492.12,202.2L497.98,202.9L509.7,201.77L515.56,197.85L521.41,200.54L527.27,202.22L533.13,200.43L538.99,201.53L544.85,198.75L550.71,201.92L556.57,207.41L562.42,202.97L568.28,198.97L574.14,203.2L580,199.03" style="vector-effect: non-scaling-stroke; fill: none; stroke: rgb(31, 119, 180); stroke-opacity: 1; stroke-width: 2px; opacity: 1;"/><g class="points"/></g><g class="trace scatter trace278ed1" style="stroke-miterlimit: 2; opacity: 1;"><path class="js-line" d="M0,73.81L5.86,150.51L11.72,168.71L17.58,187.96L23.43,199.05L29.29,232.87L35.15,250.64L41.01,256.49L46.87,250.89L52.73,256.96L58.59,269.87L64.44,269.46L70.3,258.19L76.16,258.97L82.02,286L87.88,256.42L93.74,277.36L99.6,286.23L105.45,287.36L111.31,278.08L117.17,285.96L123.03,285.84L128.89,296.87L134.75,288.6L140.61,286.33L146.46,289.33L152.32,290.17L164.04,289.12L169.9,298.42L175.76,296.02L181.62,301.34L187.47,298.3L193.33,294.4L199.19,286.53L205.05,301.39L210.91,286.62L216.77,304.04L222.63,293.47L228.48,297.7L234.34,301.96L240.2,299.33L246.06,294.1L251.92,297.42L257.78,303.19L263.64,288.67L269.49,298.61L275.35,297.97L281.21,304.19L287.07,278.76L292.93,300.33L298.79,285.89L304.65,313.5L310.51,289.57L316.36,292.04L322.22,305.26L328.08,294.19L333.94,296.39L339.8,285.85L345.66,297.54L351.52,308.43L357.37,311.28L363.23,299.67L369.09,303.57L374.95,297.97L380.81,305.51L386.67,301.66L392.53,291.35L398.38,305.72L404.24,293.92L410.1,303.77L415.96,302.79L421.82,297.36L427.68,312.1L433.54,300.75L439.39,309.1L445.25,293.56L451.11,305.86L456.97,299.38L462.83,289.79L468.69,300.67L474.55,302.19L480.4,304.7L486.26,296.36L492.12,308.27L497.98,302.64L503.84,302.45L509.7,311.69L515.56,295.34L521.41,311.25L527.27,305.39L533.13,305.76L538.99,305.77L544.85,309.61L550.71,302.75L556.57,298.3L562.42,304.84L568.28,303.32L574.14,296.64L580,306.2" style="vector-effect: non-scaling-stroke; fill: none; stroke: rgb(255, 127, 14); stroke-opacity: 1; stroke-width: 2px; opacity: 1;"/><g class="points"/></g></g></g><g class="overplot"/><path class="xlines-above crisp" d="M0,0" style="fill: none;"/><path class="ylines-above crisp" d="M0,0" style="fill: none;"/><g class="overlines-above"/><g class="xaxislayer-above"><g class="xtick"><text text-anchor="middle" x="0" y="403" transform="translate(60,0)" style="font-family: 'Open Sans', verdana, arial, sans-serif; font-size: 12px; fill: rgb(68, 68, 68); fill-opacity: 1; white-space: pre;">0</text></g><g class="xtick"><text text-anchor="middle" x="0" y="403" transform="translate(177.17000000000002,0)" style="font-family: 'Open Sans', verdana, arial, sans-serif; font-size: 12px; fill: rgb(68, 68, 68); fill-opacity: 1; white-space: pre;">20</text></g><g class="xtick"><text text-anchor="middle" x="0" y="403" transform="translate(294.34000000000003,0)" style="font-family: 'Open Sans', verdana, arial, sans-serif; font-size: 12px; fill: rgb(68, 68, 68); fill-opacity: 1; white-space: pre;">40</text></g><g class="xtick"><text text-anchor="middle" x="0" y="403" transform="translate(411.52,0)" style="font-family: 'Open Sans', verdana, arial, sans-serif; font-size: 12px; fill: rgb(68, 68, 68); fill-opacity: 1; white-space: pre;">60</text></g><g class="xtick"><text text-anchor="middle" x="0" y="403" transform="translate(528.69,0)" style="font-family: 'Open Sans', verdana, arial, sans-serif; font-size: 12px; fill: rgb(68, 68, 68); fill-opacity: 1; white-space: pre;">80</text></g></g><g class="yaxislayer-above"><g class="ytick"><text text-anchor="end" x="59" y="4.199999999999999" transform="translate(0,364.97)" style="font-family: 'Open Sans', verdana, arial, sans-serif; font-size: 12px; fill: rgb(68, 68, 68); fill-opacity: 1; white-space: pre;">0.4</text></g><g class="ytick"><text text-anchor="end" x="59" y="4.199999999999999" transform="translate(0,328.53)" style="font-family: 'Open Sans', verdana, arial, sans-serif; font-size: 12px; fill: rgb(68, 68, 68); fill-opacity: 1; white-space: pre;">0.6</text></g><g class="ytick"><text text-anchor="end" x="59" y="4.199999999999999" transform="translate(0,292.08000000000004)" style="font-family: 'Open Sans', verdana, arial, sans-serif; font-size: 12px; fill: rgb(68, 68, 68); fill-opacity: 1; white-space: pre;">0.8</text></g><g class="ytick"><text text-anchor="end" x="59" y="4.199999999999999" transform="translate(0,255.64)" style="font-family: 'Open Sans', verdana, arial, sans-serif; font-size: 12px; fill: rgb(68, 68, 68); fill-opacity: 1; white-space: pre;">1</text></g><g class="ytick"><text text-anchor="end" x="59" y="4.199999999999999" transform="translate(0,219.19)" style="font-family: 'Open Sans', verdana, arial, sans-serif; font-size: 12px; fill: rgb(68, 68, 68); fill-opacity: 1; white-space: pre;">1.2</text></g><g class="ytick"><text text-anchor="end" x="59" y="4.199999999999999" transform="translate(0,182.75)" style="font-family: 'Open Sans', verdana, arial, sans-serif; font-size: 12px; fill: rgb(68, 68, 68); fill-opacity: 1; white-space: pre;">1.4</text></g><g class="ytick"><text text-anchor="end" x="59" y="4.199999999999999" transform="translate(0,146.3)" style="font-family: 'Open Sans', verdana, arial, sans-serif; font-size: 12px; fill: rgb(68, 68, 68); fill-opacity: 1; white-space: pre;">1.6</text></g><g class="ytick"><text text-anchor="end" x="59" y="4.199999999999999" transform="translate(0,109.86)" style="font-family: 'Open Sans', verdana, arial, sans-serif; font-size: 12px; fill: rgb(68, 68, 68); fill-opacity: 1; white-space: pre;">1.8</text></g><g class="ytick"><text text-anchor="end" x="59" y="4.199999999999999" transform="translate(0,73.41)" style="font-family: 'Open Sans', verdana, arial, sans-serif; font-size: 12px; fill: rgb(68, 68, 68); fill-opacity: 1; white-space: pre;">2</text></g></g><g class="overaxes-above"/></g></g><g class="polarlayer"/><g class="ternarylayer"/><g class="geolayer"/><g class="pielayer"/><g class="glimages"/><defs id="topdefs-0e48e2"><g class="clips"/></defs><g class="layer-above"><g class="imagelayer"/><g class="shapelayer"/></g><g class="infolayer"><g class="g-gtitle"><text class="gtitle" x="350" y="30" text-anchor="middle" style="font-family: 'Open Sans', verdana, arial, sans-serif; font-size: 17px; fill: rgb(68, 68, 68); opacity: 1; font-weight: normal; white-space: pre;">train_val_loss</text></g><g class="g-xtitle"/><g class="g-ytitle"/></g></svg>